<svg width="25" height="24" viewBox="0 0 25 24" fill="none" xmlns="http://www.w3.org/2000/svg">
<g clip-path="url(#clip0_4_54)">
<mask id="mask0_4_54" style="mask-type:luminance" maskUnits="userSpaceOnUse" x="0" y="0" width="25" height="24">
<path d="M24.5 0H0.5V24H24.5V0Z" fill="white"/>
</mask>
<g mask="url(#mask0_4_54)">
<path d="M23.9392 12.2246C23.9392 11.2413 23.8594 10.5238 23.6868 9.77972H12.4588V14.2177H19.0494C18.9165 15.3206 18.199 16.9815 16.6044 18.0976L16.5821 18.2462L20.1322 20.9964L20.3781 21.0209C22.637 18.9347 23.9392 15.8653 23.9392 12.2246Z" fill="#4285F4"/>
<path d="M12.4589 23.9176C15.6877 23.9176 18.3983 22.8545 20.3782 21.0209L16.6046 18.0976C15.5947 18.8018 14.2394 19.2935 12.4589 19.2935C9.2964 19.2935 6.61236 17.2074 5.65557 14.324L5.51533 14.3359L1.8239 17.1927L1.77563 17.3269C3.74216 21.2334 7.78158 23.9176 12.4589 23.9176Z" fill="#34A853"/>
<path d="M5.65551 14.324C5.40305 13.5799 5.25695 12.7826 5.25695 11.9588C5.25695 11.1349 5.40305 10.3377 5.64223 9.59358L5.63554 9.4351L1.89786 6.53241L1.77557 6.59058C0.965069 8.2117 0.5 10.0321 0.5 11.9588C0.5 13.8855 0.965069 15.7058 1.77557 17.3269L5.65551 14.324Z" fill="#FBBC05"/>
<path d="M12.4589 4.62403C14.7044 4.62403 16.2191 5.59402 17.0829 6.40461L20.4579 3.10928C18.3851 1.18259 15.6877 0 12.4589 0C7.78158 0 3.74216 2.68406 1.77563 6.59057L5.64229 9.59363C6.61236 6.7102 9.2964 4.62403 12.4589 4.62403Z" fill="#EB4335"/>
</g>
</g>
<defs>
<clipPath id="clip0_4_54">
<rect width="24" height="24" fill="white" transform="translate(0.5)"/>
</clipPath>
</defs>
</svg>
